<svg version="1.1" id="svg1" xml:space="preserve" xmlns="http://www.w3.org/2000/svg" xmlns:svg="http://www.w3.org/2000/svg" viewBox="4.63 104.17 200.73 71.06"><defs id="defs1"/><g id="layer1"><g id="g69" transform="matrix(0.97644456,0,0,0.94432417,2.3517163,57.155182)"><path style="fill:#ffcc00;stroke-width:1.01148" d="M 2.4078076,74.047689 C 2.2764106,66.86321 2.4704406,59.585114 2.4422806,52.485557 l 9.7875644,0.0073 c 13.002076,0.0097 15.214783,0.368543 17.404174,2.419665 1.652115,1.547781 1.879477,1.447119 1.759561,17.739501 -0.111481,15.147005 0.04077,18.013483 -0.856174,19.449181 -0.791004,1.266122 -2.367692,2.267676 -4.330092,2.766247 -1.732026,0.440042 -2.768173,0.478893 -12.773332,0.478893 H 2.5455783 Z M 21.24446,89.306887 c 0.439491,-0.300025 0.484386,-1.709844 0.484386,-15.210899 0,-12.955496 -0.05769,-14.927688 -0.446142,-15.247208 -0.613337,-0.504497 -2.301309,-0.524917 -6.045567,-0.514166 l -3.475109,0.01239 0.01772,15.412719 c 0.0097,8.477077 -0.08272,15.685343 0.0017,15.867018 0.17506,0.123331 8.750202,0.141467 9.463003,-0.319913 z m 17.200571,-10.627925 0.0033,-16.634543 4.666956,0.0055 4.537067,0.0027 -0.0065,2.112843 2.34e-4,2.134759 0.750241,-1.041899 c 1.421398,-1.973945 3.652062,-3.211189 6.713257,-3.211189 h 1.514916 v 3.276725 l -0.03769,3.168237 -2.407957,0.01551 c -3.090113,0.0199 -4.737617,0.694337 -5.651903,2.156097 -0.584571,0.934613 -0.61059,1.412855 -0.696521,12.80348 l -0.189133,11.887384 h -4.458292 l -4.746596,0.0036 z m 22.015589,-0.0055 V 62.047134 h 4.573702 l 4.613673,0.0055 c -0.01327,5.540281 0.06413,11.080554 -0.03993,16.620836 0.09212,5.516862 0.03647,11.127175 0.03335,16.670154 l -4.607015,0.01092 h -4.580438 z m 16.096051,-5.968554 0.01662,-22.794852 4.781184,-0.0082 4.637985,-0.04385 0.0067,22.978398 0.0033,22.457905 -4.591367,0.0055 h -4.72124 z m 16.750818,0.03284 c 0.194455,-7.601845 -0.0089,-15.214606 9.48e-4,-22.816411 l 4.40291,-0.02229 4.640293,0.0055 0.01,22.822244 -0.02,22.622271 -4.547053,0.01092 -4.49377,-0.0055 c 0.07996,-7.555425 -0.05721,-15.14361 0.0067,-22.61682 z m -32.842308,-19.206659 0.0089,-3.617231 4.473709,-0.0027 4.708648,-0.0073 0.0677,3.405732 -0.0033,3.23825 -4.715105,-0.0027 -4.464285,0.0055 z" id="path1"/><path style="fill:#000000;stroke-width:1.02307" d="M 109.84785,73.880601 V 52.616978 l 9.65867,0.0042 9.35828,0.03854 c 1.47987,0.506555 3.36448,1.294328 3.94462,2.744029 1.08988,2.723548 0.52275,7.188778 0.67068,10.436877 0.0165,3.129291 0.0329,5.955173 0.0496,9.387873 -0.35406,4.552145 -7.05275,4.442521 -10.45885,4.428553 l -5.32701,0.02082 -0.008,7.901681 -0.008,7.858957 -3.90858,-0.0037 h -3.96978 z m 15.7197,-2.444316 c 1e-5,-0.262288 0.069,-0.881693 0.0243,-5.922627 -0.054,-6.092959 -0.0716,-5.729744 -0.36593,-6.258422 -0.5142,-0.923572 -1.63013,-0.838181 -4.03366,-0.850087 l -3.44855,-0.0171 0.0436,7.481302 v 7.635089 l 3.75975,0.06203 c 3.43697,0.05663 4.0204,-1.311072 4.02043,-2.130174 z m 13.02688,7.130164 0.0795,-16.732541 3.46575,-0.02034 4.25748,0.03365 0.0705,16.793503 0.0705,16.793493 h -3.97183 -3.97182 z m 13.92633,-6.014217 c 0.004,-7.50039 -0.0668,-15.144402 -0.0121,-22.763696 l 4.04236,0.0059 3.85484,0.0059 c -8.2e-4,7.583954 -0.0863,15.173822 0.0241,22.757788 l -0.0121,22.876068 h -3.89113 -4.01817 z m 18.05645,22.508641 c -1.64214,-0.432231 -3.02119,-1.465986 -3.67678,-2.756152 -0.48131,-0.947247 -0.52309,-1.882202 -0.59554,-13.329485 -0.0875,-13.833411 -0.0957,-13.76552 1.85795,-15.490859 1.66506,-1.470487 2.64293,-1.637393 9.58171,-1.635383 5.89568,0.0021 6.22191,0.02901 7.60362,0.637771 1.78717,0.78732 2.66985,1.784657 3.22163,3.640065 0.36333,1.221751 0.41432,3.169674 0.34456,13.162752 -0.0803,11.505278 -0.0933,11.749851 -0.68585,12.832558 -0.8067,1.474175 -1.99936,2.409696 -3.70222,2.904039 -1.80931,0.52523 -11.98922,0.550556 -13.94908,0.03472 z m 10.21381,-5.956998 c 0.30389,-0.357961 0.37573,-2.383036 0.37573,-10.592778 0,-9.738719 -0.0215,-10.165603 -0.53144,-10.530067 -0.78882,-0.563848 -5.70754,-0.532047 -6.29341,0.04067 -0.37584,0.367364 -0.43023,1.689603 -0.43023,10.454981 0,6.405196 0.10253,10.221662 0.2834,10.552085 0.25344,0.462936 0.59724,0.517671 3.25181,0.517671 2.42719,0 3.0369,-0.08073 3.34414,-0.442577 z m 19.49629,6.074034 c -2.57481,-0.599702 -4.27019,-2.313994 -4.74533,-4.798201 -0.15546,-0.812804 -0.10633,-6.095594 -0.10633,-12.035391 l -0.0242,-10.499193 -1.78785,0.003 -1.6384,-0.0081 -0.004,-3.048424 v -3.044114 h 1.64695 1.81805 l -0.004,-2.948055 -0.0129,-2.851876 3.81147,0.0041 3.96123,-0.0041 0.004,2.822606 0.006,2.979352 2.32408,-0.0029 2.34828,0.0089 v 3.036296 3.048126 l -2.35131,0.003 -2.32408,-0.003 -0.003,10.148182 c -0.002,8.21944 0.0715,10.214169 0.38083,10.627721 0.29618,0.395961 0.81334,0.532993 2.3271,0.616593 l 1.97049,0.122298 0.003,3.032717 v 3.038615 l -3.381,-0.01853 c -1.84461,-0.01015 -3.74309,-0.118079 -4.21893,-0.228918 z m -61.62143,-42.516887 -0.002,-2.864714 3.7631,9.71e-4 3.96789,8e-5 -0.003,3.215195 0.002,2.936642 -3.9675,-0.0022 -3.76015,-5.2e-4 z" id="path21"/><path style="fill:#000000;stroke-width:0.427713" d="m 125.31701,123.44377 -0.008,-1.10705 1.46184,-0.007 c 1.92861,-0.009 2.33323,-0.25307 2.66265,-1.25079 l 0.0851,-0.33382 -0.97531,0.002 c -0.96673,0.002 -1.00288,0.0293 -1.09814,-0.21398 -0.77018,-1.96688 -4.12575,-11.28191 -4.03843,-11.29664 0.034,-0.006 1.00781,-3.5e-4 2.15641,1.1e-4 1.54322,4.9e-4 2.05729,-0.002 2.06976,0.003 0.0863,0.0367 0.70944,2.19142 1.39775,4.60309 0.6883,2.41167 1.28888,4.35608 1.33463,4.32091 0.0457,-0.0353 0.60166,-2.02396 1.23534,-4.41948 0.63367,-2.39554 1.12905,-4.49317 1.2058,-4.50568 0.0525,-0.008 0.78076,-0.0207 1.88873,-0.0103 1.93701,0.0172 2.25434,-0.009 2.21779,0.0125 -0.41275,0.2393 -4.02573,12.81022 -4.30501,13.29251 -0.16114,0.27829 -0.55231,0.69635 -0.86925,0.929 -1.05089,0.77143 -2.39529,1.04914 -5.08529,1.05048 l -1.34289,0.004 z m -15.42877,-10.34498 c -0.083,-2.72938 0.0136,-5.45875 0.003,-8.18813 l 2.15711,0.004 h 2.10734 l 0.009,2.63932 v 2.5995 l 0.36873,-0.28314 c 0.67167,-0.51577 1.06114,-0.63558 2.93342,-0.63156 1.51243,0.003 1.77806,0.0684 2.48266,0.27869 0.87969,0.2625 1.38316,0.59553 1.62309,1.23439 0.23737,0.63201 0.29566,8.352 -0.0151,8.99703 -0.48008,0.99783 -1.70094,1.42832 -4.15523,1.42895 -1.69967,3.4e-4 -2.32321,-0.12657 -2.83705,-0.5779 l -0.40534,-0.30168 -0.0136,0.44399 v 0.48094 l -2.12053,-0.003 -2.12933,0.003 c -0.0714,-2.71362 -0.0433,-5.40349 -0.009,-8.12398 z m 7.31136,5.82671 c 0.2624,-0.124 0.27327,-0.26993 0.27327,-3.67018 0,-2.86763 -0.0368,-3.56965 -0.19321,-3.69145 -0.15133,-0.11778 -0.4467,-0.15038 -1.36241,-0.15038 -1.85955,0 -1.75276,-0.23378 -1.75276,3.83698 v 3.35762 l 0.34556,0.22328 c 0.30423,0.19658 0.46936,0.22327 1.38092,0.22327 0.67209,0 1.13123,-0.0454 1.30863,-0.12914 z" id="path46"/><g style="clip-rule:evenodd;fill-rule:evenodd" id="g66" transform="matrix(0.26458333,0,0,0.26458333,-130.75856,55.884239)"><g transform="matrix(0.13511085,0,0,0.16690662,418.69165,-870.08747)" id="g2">
        <g id="sunab_logo_main" transform="matrix(4.16667,0,0,4.16667,5446.8756,6544.8495)">
            <g transform="translate(-248.031,-60.9449)" id="g1">
                <g id="layer1-5" transform="translate(-841.822,148.559)">
                    <path id="path6611" d="m 934.187,-140.777 c -34.176,0.013 -62.781,27.031 -64.743,61.151 h 129.432 c -1.96,-34.1 -30.532,-61.11 -64.689,-61.151 z m -64.645,69.326 c 0.86,12.491 5.317,24.47 12.831,34.484 h 100.321 v -7.443 h 8.051 c 4.64,-8.312 7.395,-17.545 8.067,-27.041 z" style="fill:#f0b80b;fill-rule:nonzero"/>
                    <g id="text898">
                    </g>
                    <path id="path4984" d="m 1042.82,-50.247 v -11.664 c 0,-1.728 -0.29,-2.832 -0.87,-3.312 -0.48,-0.576 -1.63,-0.864 -3.45,-0.864 h -7.35 c -4.7,0 -8.11,-1.056 -10.22,-3.168 -2.11,-2.208 -3.17,-5.376 -3.17,-9.504 v -14.832 c 0,-4.224 1.06,-7.392 3.17,-9.504 2.2,-2.208 5.61,-3.312 10.22,-3.312 h 10.51 c 4.71,0 8.12,1.104 10.23,3.312 2.21,2.112 3.31,5.28 3.31,9.504 v 6.768 h -12.67 v -5.472 c 0,-1.728 -0.29,-2.832 -0.87,-3.312 -0.48,-0.576 -1.63,-0.864 -3.45,-0.864 h -3.46 c -1.73,0 -2.88,0.288 -3.45,0.864 -0.58,0.48 -0.87,1.584 -0.87,3.312 v 12.096 c 0,1.728 0.29,2.88 0.87,3.456 0.57,0.48 1.72,0.72 3.45,0.72 h 7.49 c 4.61,0 7.97,1.104 10.08,3.312 2.11,2.112 3.17,5.28 3.17,9.504 v 14.4 c 0,4.128 -1.11,7.296 -3.32,9.504 -2.11,2.112 -5.47,3.168 -10.07,3.168 h -10.66 c -4.61,0 -8.02,-1.056 -10.22,-3.168 -2.12,-2.208 -3.17,-5.376 -3.17,-9.504 v -6.912 h 12.81 v 5.472 c 0,1.632 0.29,2.736 0.87,3.312 0.57,0.576 1.68,0.864 3.31,0.864 h 3.46 c 1.82,0 2.97,-0.288 3.45,-0.864 0.58,-0.576 0.87,-1.68 0.87,-3.312 z" style="fill:#f0b80b;fill-rule:nonzero"/>
                    <path id="path4986" d="m 1066.45,-106.407 h 12.96 v 55.584 c 0,1.632 0.29,2.736 0.86,3.312 0.58,0.576 1.73,0.864 3.46,0.864 h 5.04 c 1.63,0 2.83,-0.336 3.6,-1.008 0.77,-0.768 1.15,-2.112 1.15,-4.032 v -4.608 h 0.58 v 10.368 c 0,3.456 -0.87,5.952 -2.59,7.488 -1.73,1.536 -4.04,2.304 -6.92,2.304 h -5.18 c -4.42,0 -7.68,-1.056 -9.79,-3.168 -2.11,-2.208 -3.17,-5.376 -3.17,-9.504 z m 27.07,0 h 12.96 v 70.272 h -12.96 z" style="fill:#f0b80b;fill-rule:nonzero"/>
                    <path id="path4988" d="m 1132.15,-36.135 h -12.96 v -70.272 h 12.96 z m 27.07,0 h -12.96 v -55.584 c 0,-1.728 -0.29,-2.832 -0.87,-3.312 -0.57,-0.576 -1.72,-0.864 -3.45,-0.864 h -5.04 c -1.63,0 -2.83,0.384 -3.6,1.152 -0.77,0.768 -1.15,2.064 -1.15,3.888 v 4.608 h -0.58 v -10.368 c 0,-3.456 0.86,-5.952 2.59,-7.488 1.73,-1.536 4.03,-2.304 6.92,-2.304 h 5.18 c 4.41,0 7.68,1.104 9.79,3.312 2.11,2.112 3.17,5.28 3.17,9.504 z" style="fill:#f0b80b;fill-rule:nonzero"/>
                    <path id="path4990" d="m 1195.25,-50.247 v -11.664 c 0,-1.728 -0.29,-2.832 -0.86,-3.312 -0.48,-0.576 -1.63,-0.864 -3.46,-0.864 h -7.34 c -4.71,0 -8.11,-1.056 -10.22,-3.168 -2.12,-2.208 -3.17,-5.376 -3.17,-9.504 v -14.832 c 0,-4.224 1.05,-7.392 3.17,-9.504 2.2,-2.208 5.61,-3.312 10.22,-3.312 h 10.51 c 4.71,0 8.11,1.104 10.23,3.312 2.2,2.112 3.31,5.28 3.31,9.504 v 6.768 h -12.68 v -5.472 c 0,-1.728 -0.28,-2.832 -0.86,-3.312 -0.48,-0.576 -1.63,-0.864 -3.46,-0.864 h -3.45 c -1.73,0 -2.88,0.288 -3.46,0.864 -0.57,0.48 -0.86,1.584 -0.86,3.312 v 12.096 c 0,1.728 0.29,2.88 0.86,3.456 0.58,0.48 1.73,0.72 3.46,0.72 h 7.49 c 4.61,0 7.96,1.104 10.08,3.312 2.11,2.112 3.16,5.28 3.16,9.504 v 14.4 c 0,4.128 -1.1,7.296 -3.31,9.504 -2.11,2.112 -5.47,3.168 -10.08,3.168 h -10.65 c -4.61,0 -8.02,-1.056 -10.23,-3.168 -2.11,-2.208 -3.16,-5.376 -3.16,-9.504 v -6.912 h 12.81 v 5.472 c 0,1.632 0.29,2.736 0.86,3.312 0.58,0.576 1.69,0.864 3.32,0.864 h 3.45 c 1.83,0 2.98,-0.288 3.46,-0.864 0.57,-0.576 0.86,-1.68 0.86,-3.312 z" style="fill:#0e1011;fill-rule:nonzero"/>
                    <path id="path4992" d="m 1231.13,-68.823 h -12.96 v -24.768 c 0,-4.224 1.05,-7.392 3.17,-9.504 2.11,-2.208 5.37,-3.312 9.79,-3.312 h 5.18 c 2.88,0 5.19,0.768 6.91,2.304 1.73,1.536 2.6,4.032 2.6,7.488 v 9.648 h -0.58 v -3.888 c 0,-1.824 -0.38,-3.12 -1.15,-3.888 -0.77,-0.768 -1.97,-1.152 -3.6,-1.152 h -5.04 c -1.73,0 -2.88,0.288 -3.46,0.864 -0.58,0.48 -0.86,1.584 -0.86,3.312 z m 27.07,32.688 h -12.96 v -70.272 h 12.96 z m -40.03,-37.584 h 12.96 v 22.896 c 0,1.632 0.28,2.736 0.86,3.312 0.58,0.576 1.73,0.864 3.46,0.864 h 5.04 c 1.63,0 2.83,-0.336 3.6,-1.008 0.77,-0.768 1.15,-2.112 1.15,-4.032 v -3.744 h 0.58 v 9.504 c 0,3.456 -0.87,5.952 -2.6,7.488 -1.72,1.536 -4.03,2.304 -6.91,2.304 h -5.18 c -4.42,0 -7.68,-1.056 -9.79,-3.168 -2.12,-2.208 -3.17,-5.376 -3.17,-9.504 z" style="fill:#0e1011;fill-rule:nonzero"/>
                    <path id="path4994" d="m 1297.85,-73.719 h 12.96 v 24.912 c 0,4.128 -1.05,7.296 -3.17,9.504 -2.11,2.112 -5.37,3.168 -9.79,3.168 h -5.18 c -2.88,0 -5.18,-0.768 -6.91,-2.304 -1.73,-1.536 -2.6,-4.032 -2.6,-7.488 v -9.072 h 0.58 v 3.312 c 0,1.92 0.38,3.264 1.15,4.032 0.77,0.672 1.97,1.008 3.6,1.008 h 5.04 c 1.73,0 2.88,-0.288 3.46,-0.864 0.58,-0.576 0.86,-1.68 0.86,-3.312 z m 12.96,4.752 h -12.96 v -22.896 c 0,-1.728 -0.28,-2.832 -0.86,-3.312 -0.58,-0.576 -1.73,-0.864 -3.46,-0.864 h -5.04 c -1.63,0 -2.83,0.384 -3.6,1.152 -0.77,0.768 -1.15,2.064 -1.15,3.888 v 4.608 h -0.58 v -10.368 c 0,-3.456 0.87,-5.952 2.6,-7.488 1.73,-1.536 4.03,-2.304 6.91,-2.304 h 5.18 c 4.42,0 7.68,1.104 9.79,3.312 2.12,2.112 3.17,5.28 3.17,9.504 z m -40.03,-63.504 h 12.96 v 96.336 h -12.96 z" style="fill:#0e1011;fill-rule:nonzero"/>
                </g>
                <g id="layer2" transform="translate(-841.822,-1268.76)">
                    <path id="path1006-8-1" d="M 983.866,1381.53 H 846.938 l 27.14,-65.48 25.768,44.47 19.249,-29.27 24.212,41.78 h 46.229 l -1.175,2.05 -0.712,1.14 -1.767,2.6 -1.316,1.82 z" style="fill:#0e1011;fill-rule:nonzero;stroke:#0e1011;stroke-width:0.88px"/>
                </g>
            </g>
        </g>
    </g></g></g></g></svg>